<svg width="682.67" height="682.67" version="1.1" viewBox="0 0 682.67 682.67" xml:space="preserve" xmlns="http://www.w3.org/2000/svg"><g transform="matrix(1.3333 0 0 -1.3333 0 682.67)"><g transform="translate(374.96,419)"><path fill="white" d="m0 0h-238.9c-24.336 0-44.066-19.73-44.066-44.066v-238.9c0-24.339 19.73-44.066 44.066-44.066h117.82l0.203 116.86h-30.363c-3.946 0-7.149 3.192-7.161 7.137l-0.148 37.672c-0.016 3.965 3.199 7.191 7.164 7.191h30.309v36.399c0 42.238 25.797 65.238 63.476 65.238h30.922c3.953 0 7.164-3.207 7.164-7.164v-31.762c0-3.957-3.207-7.164-7.16-7.164l-18.977-0.011c-20.492 0-24.461-9.735-24.461-24.028v-31.511h45.028c4.293 0 7.621-3.747 7.113-8.004l-4.465-37.672c-0.426-3.606-3.484-6.321-7.113-6.321h-40.359l-0.204-116.86h70.106c24.336 0 44.066 19.731 44.066 44.067v238.9c0 24.336-19.73 44.066-44.066 44.066"/></g></g></svg>
