<svg xmlns="http://www.w3.org/2000/svg" viewBox="0 0 388 388"><path d="M256.4 68H131.6c-35 0-63.6 28.5-63.6 63.6v124.8c0 35.1 28.5 63.6 63.6 63.6h124.8c35.1 0 63.6-28.5 63.6-63.6V131.6C320 96.5 291.5 68 256.4 68zM292.6 256.4c0 19.9-16.2 36.1-36.1 36.1H131.6c-19.9 0-36.1-16.2-36.1-36.1V131.6c0-19.9 16.2-36.1 36.1-36.1h124.8c19.9 0 36.1 16.2 36.1 36.1V256.4z"/><path d="M261 142.5c-8.5 0-15.4-6.9-15.4-15.4 0-8.5 6.9-15.4 15.4-15.4 8.5 0 15.4 6.9 15.4 15.4C276.3 135.7 269.4 142.5 261 142.5L261 142.5z"/><path d="M194 129.1c-35.8 0-64.9 29.1-64.9 64.9 0 35.8 29.1 64.9 64.9 64.9 35.8 0 64.9-29.1 64.9-64.9C258.9 158.2 229.8 129.1 194 129.1zM194 231.5c-20.7 0-37.5-16.8-37.5-37.5 0-20.7 16.8-37.5 37.5-37.5 20.7 0 37.5 16.8 37.5 37.5C231.5 214.7 214.7 231.5 194 231.5z"/></svg>
